#N canvas 56 89 821 533 10;
#X declare -lib mrpeach;
#X obj 212 362 import mrpeach;
#X obj -43 141 dbtorms;
#X obj -163 102 lop~ 200;
#X msg -97 102 npartial 1;
#X obj -163 124 fiddle~ 1024 1 1 0;
#X obj -30 -8 adc~;
#X obj 309 428 udpsend;
#X obj 309 406 packOSC;
#X msg 156 411 connect localhost 12000;
#X text 213 391 OSC CONNECTION;
#X obj 436 166 unpack;
#X obj 436 187 *;
#X floatatom 436 209 5 0 0 0 - - -;
#X obj 483 166 unpack;
#X obj 483 187 *;
#X obj 330 101 hip~;
#X obj 331 123 fiddle~ 1024 1 3 3;
#X obj 436 145 route 1 2 3;
#X obj 525 165 unpack;
#X obj 530 188 *;
#X floatatom 530 211 5 0 0 0 - - -;
#X obj 153 167 unpack;
#X msg 80 99 npartial 4;
#X obj 47 99 vcf~;
#X floatatom 68 78 5 0 0 0 - - -;
#X obj 58 56 sig~ 1100;
#X obj 202 167 unpack;
#X obj 202 188 *;
#X obj 48 123 fiddle~ 1024 1 3 3;
#X obj 153 145 route 1 2 3;
#X obj 248 169 unpack;
#X obj 248 190 *;
#X obj 153 191 *;
#X obj -58 165 *;
#X obj 9 123 bonk~;
#X floatatom 248 211 5 0 0 0 - - -;
#X floatatom 202 211 5 0 0 0 - - -;
#X obj 293 123 bonk~;
#X floatatom 293 145 5 0 0 0 - - -;
#X floatatom 9 144 5 0 0 0 - - -;
#X msg 373 101 npartial 8;
#X floatatom 153 213 5 0 0 0 - - -;
#X msg 351 77 10000;
#X floatatom -32 166 5 0 0 0 - - -;
#X floatatom -58 187 5 0 0 0 - - -;
#X obj -201 124 bonk~;
#X floatatom -201 146 5 0 0 0 - - -;
#X obj 68 145 bonk~;
#X floatatom 68 166 5 0 0 0 - - -;
#X floatatom 469 234 5 0 0 0 - - -;
#X floatatom -95 165 5 0 0 0 - - -;
#X floatatom 483 209 5 0 0 0 - - -;
#X floatatom 516 235 5 0 0 0 - - -;
#X floatatom 558 235 5 0 0 0 - - -;
#X text -89 83 LOW HZ;
#X text 109 80 MID HZ;
#X text 394 83 HIGH HZ;
#X text -186 358 1 PLEASE SET UP YOUR AUDIO INPUT SYSTEM / MIC INPUT
2 SET = CLICK npartial Messages AND SET number THAT IS CONNECTED TO
vcf~ ( FOR EXAMPLE SET TO 100) 3 SET = CLICK / EDIT connect localhost
4 DSP On;
#X msg 309 384 send /test \$1 \$2 \$3 \$4 \$5 \$6 \$7 \$8 \$9;
#X obj 309 362 pack i i i i i i i i i;
#X connect 1 0 33 1;
#X connect 1 0 43 0;
#X connect 2 0 4 0;
#X connect 2 0 45 0;
#X connect 3 0 4 0;
#X connect 4 3 1 0;
#X connect 4 3 33 0;
#X connect 4 3 50 0;
#X connect 5 0 2 0;
#X connect 5 0 15 0;
#X connect 5 0 23 0;
#X connect 5 1 2 0;
#X connect 5 1 15 0;
#X connect 5 1 23 0;
#X connect 7 0 6 0;
#X connect 8 0 6 0;
#X connect 10 0 11 0;
#X connect 10 1 11 1;
#X connect 10 1 49 0;
#X connect 11 0 12 0;
#X connect 13 0 14 0;
#X connect 13 1 14 1;
#X connect 13 1 52 0;
#X connect 14 0 51 0;
#X connect 15 0 16 0;
#X connect 15 0 37 0;
#X connect 16 4 17 0;
#X connect 17 0 10 0;
#X connect 17 1 13 0;
#X connect 17 2 18 0;
#X connect 18 0 19 0;
#X connect 18 1 19 1;
#X connect 18 1 53 0;
#X connect 19 0 20 0;
#X connect 21 0 32 0;
#X connect 21 1 32 1;
#X connect 22 0 28 0;
#X connect 23 0 28 0;
#X connect 23 0 34 0;
#X connect 23 1 47 0;
#X connect 24 0 23 2;
#X connect 25 0 23 1;
#X connect 26 0 27 0;
#X connect 26 1 27 1;
#X connect 27 0 36 0;
#X connect 28 4 29 0;
#X connect 29 0 21 0;
#X connect 29 1 26 0;
#X connect 29 2 30 0;
#X connect 30 0 31 0;
#X connect 30 1 31 1;
#X connect 31 0 35 0;
#X connect 32 0 41 0;
#X connect 33 0 44 0;
#X connect 34 0 39 0;
#X connect 37 0 38 0;
#X connect 40 0 16 0;
#X connect 42 0 15 1;
#X connect 45 0 46 0;
#X connect 47 0 48 0;
#X connect 58 0 7 0;
#X connect 59 0 58 0;
